name ./resultDataOpenSim/trcMotMarkerGrf/sub10/grf-15-06.mot
datacolumns 19
datarows 27
range 0.51600000 0.62000000
endheader

                time	     ground_force_vx	     ground_force_vy	     ground_force_vz	     ground_force_px	     ground_force_py	     ground_force_pz	   l_ground_force_vx	   l_ground_force_vy	   l_ground_force_vz	   l_ground_force_px	   l_ground_force_py	   l_ground_force_pz	     ground_torque_x	     ground_torque_y	     ground_torque_z	   l_ground_torque_x	   l_ground_torque_y	   l_ground_torque_z	
          0.51600000	         76.50881329	        615.09395976	        -49.10381950	         -0.81743400	          0.00000000	         -0.03159810	          0.00000000	          0.00000000	          0.00000000	          0.00000000	          0.00000000	          0.00000000	          0.00000000	          4.13824988	          0.00000000	          0.00000000	          0.00000000	          0.00000000	
          0.52000000	         79.91909222	        627.42184907	        -50.95786794	         -0.81589925	          0.00000000	         -0.03142115	          0.00000000	          0.00000000	          0.00000000	          0.00000000	          0.00000000	          0.00000000	          0.00000000	          4.10130226	          0.00000000	          0.00000000	          0.00000000	          0.00000000	
          0.52400000	         83.80276087	        640.08402364	        -52.95905912	         -0.81461657	          0.00000000	         -0.03128798	          0.00000000	          0.00000000	          0.00000000	          0.00000000	          0.00000000	          0.00000000	          0.00000000	          4.04438246	          0.00000000	          0.00000000	          0.00000000	          0.00000000	
          0.52800000	         88.28013114	        652.81217462	        -55.00587877	         -0.81353565	          0.00000000	         -0.03121325	          0.00000000	          0.00000000	          0.00000000	          0.00000000	          0.00000000	          0.00000000	          0.00000000	          3.97386846	          0.00000000	          0.00000000	          0.00000000	          0.00000000	
          0.53200000	         93.40192788	        665.54781047	        -56.96230640	         -0.81261974	          0.00000000	         -0.03119883	          0.00000000	          0.00000000	          0.00000000	          0.00000000	          0.00000000	          0.00000000	          0.00000000	          3.89875155	          0.00000000	          0.00000000	          0.00000000	          0.00000000	
          0.53600000	         99.16906335	        678.47193120	        -58.68587051	         -0.81189419	          0.00000000	         -0.03124130	          0.00000000	          0.00000000	          0.00000000	          0.00000000	          0.00000000	          0.00000000	          0.00000000	          3.82959155	          0.00000000	          0.00000000	          0.00000000	          0.00000000	
          0.54000000	        105.52784040	        691.78125874	        -60.03975972	         -0.81139453	          0.00000000	         -0.03133668	          0.00000000	          0.00000000	          0.00000000	          0.00000000	          0.00000000	          0.00000000	          0.00000000	          3.77716782	          0.00000000	          0.00000000	          0.00000000	          0.00000000	
          0.54400000	        112.33486052	        705.43132739	        -60.89189572	         -0.81107874	          0.00000000	         -0.03148777	          0.00000000	          0.00000000	          0.00000000	          0.00000000	          0.00000000	          0.00000000	          0.00000000	          3.75112905	          0.00000000	          0.00000000	          0.00000000	          0.00000000	
          0.54800000	        119.37476037	        719.08518039	        -61.12324230	         -0.81083046	          0.00000000	         -0.03171191	          0.00000000	          0.00000000	          0.00000000	          0.00000000	          0.00000000	          0.00000000	          0.00000000	          3.75891947	          0.00000000	          0.00000000	          0.00000000	          0.00000000	
          0.55200000	        126.45244160	        732.31879662	        -60.66096334	         -0.81054283	          0.00000000	         -0.03202882	          0.00000000	          0.00000000	          0.00000000	          0.00000000	          0.00000000	          0.00000000	          0.00000000	          3.80492083	          0.00000000	          0.00000000	          0.00000000	          0.00000000	
          0.55600000	        133.47784115	        744.87463125	        -59.51421472	         -0.81019774	          0.00000000	         -0.03244003	          0.00000000	          0.00000000	          0.00000000	          0.00000000	          0.00000000	          0.00000000	          0.00000000	          3.88960692	          0.00000000	          0.00000000	          0.00000000	          0.00000000	
          0.56000000	        140.47678749	        756.68968581	        -57.77879031	         -0.80985849	          0.00000000	         -0.03292428	          0.00000000	          0.00000000	          0.00000000	          0.00000000	          0.00000000	          0.00000000	          0.00000000	          4.00883582	          0.00000000	          0.00000000	          0.00000000	          0.00000000	
          0.56400000	        147.54208434	        767.68797591	        -55.60927069	         -0.80958431	          0.00000000	         -0.03345277	          0.00000000	          0.00000000	          0.00000000	          0.00000000	          0.00000000	          0.00000000	          0.00000000	          4.15381278	          0.00000000	          0.00000000	          0.00000000	          0.00000000	
          0.56800000	        154.77307428	        777.60765778	        -53.17822423	         -0.80936378	          0.00000000	         -0.03400811	          0.00000000	          0.00000000	          0.00000000	          0.00000000	          0.00000000	          0.00000000	          0.00000000	          4.31218967	          0.00000000	          0.00000000	          0.00000000	          0.00000000	
          0.57200000	        162.24346534	        786.07173578	        -50.63967546	         -0.80913591	          0.00000000	         -0.03458654	          0.00000000	          0.00000000	          0.00000000	          0.00000000	          0.00000000	          0.00000000	          0.00000000	          4.47016133	          0.00000000	          0.00000000	          0.00000000	          0.00000000	
          0.57600000	        170.00340002	        792.80317968	        -48.11065358	         -0.80886852	          0.00000000	         -0.03518539	          0.00000000	          0.00000000	          0.00000000	          0.00000000	          0.00000000	          0.00000000	          0.00000000	          4.61478171	          0.00000000	          0.00000000	          0.00000000	          0.00000000	
          0.58000000	        178.08267328	        797.72781601	        -45.67089134	         -0.80858596	          0.00000000	         -0.03579371	          0.00000000	          0.00000000	          0.00000000	          0.00000000	          0.00000000	          0.00000000	          0.00000000	          4.73560968	          0.00000000	          0.00000000	          0.00000000	          0.00000000	
          0.58400000	        186.46535743	        800.86584161	        -43.37268045	         -0.80833109	          0.00000000	         -0.03639584	          0.00000000	          0.00000000	          0.00000000	          0.00000000	          0.00000000	          0.00000000	          0.00000000	          4.82526965	          0.00000000	          0.00000000	          0.00000000	          0.00000000	
          0.58800000	        195.05552459	        802.15328792	        -41.24952670	         -0.80811305	          0.00000000	         -0.03698340	          0.00000000	          0.00000000	          0.00000000	          0.00000000	          0.00000000	          0.00000000	          0.00000000	          4.87913544	          0.00000000	          0.00000000	          0.00000000	          0.00000000	
          0.59200000	        203.68208291	        801.39606862	        -39.30968957	         -0.80789534	          0.00000000	         -0.03756274	          0.00000000	          0.00000000	          0.00000000	          0.00000000	          0.00000000	          0.00000000	          0.00000000	          4.89463404	          0.00000000	          0.00000000	          0.00000000	          0.00000000	
          0.59600000	        212.15385676	        798.39674615	        -37.52917001	         -0.80764708	          0.00000000	         -0.03814381	          0.00000000	          0.00000000	          0.00000000	          0.00000000	          0.00000000	          0.00000000	          0.00000000	          4.87053343	          0.00000000	          0.00000000	          0.00000000	          0.00000000	
          0.60000000	        220.31621640	        793.08135391	        -35.86836969	         -0.80738955	          0.00000000	         -0.03873209	          0.00000000	          0.00000000	          0.00000000	          0.00000000	          0.00000000	          0.00000000	          0.00000000	          4.80633873	          0.00000000	          0.00000000	          0.00000000	          0.00000000	
          0.60400000	        228.05766166	        785.46494309	        -34.30253127	         -0.80717611	          0.00000000	         -0.03932378	          0.00000000	          0.00000000	          0.00000000	          0.00000000	          0.00000000	          0.00000000	          0.00000000	          4.70185406	          0.00000000	          0.00000000	          0.00000000	          0.00000000	
          0.60800000	        235.27934445	        775.52064831	        -32.83428831	         -0.80702673	          0.00000000	         -0.03990872	          0.00000000	          0.00000000	          0.00000000	          0.00000000	          0.00000000	          0.00000000	          0.00000000	          4.55699553	          0.00000000	          0.00000000	          0.00000000	          0.00000000	
          0.61200000	        241.88000145	        763.12859439	        -31.46815757	         -0.80692895	          0.00000000	         -0.04048156	          0.00000000	          0.00000000	          0.00000000	          0.00000000	          0.00000000	          0.00000000	          0.00000000	          4.37189351	          0.00000000	          0.00000000	          0.00000000	          0.00000000	
          0.61600000	        247.77467704	        748.14273248	        -30.17488486	         -0.80687689	          0.00000000	         -0.04104007	          0.00000000	          0.00000000	          0.00000000	          0.00000000	          0.00000000	          0.00000000	          0.00000000	          4.14725123	          0.00000000	          0.00000000	          0.00000000	          0.00000000	
          0.62000000	        252.92422164	        730.44488368	        -28.88811782	         -0.80690833	          0.00000000	         -0.04158184	          0.00000000	          0.00000000	          0.00000000	          0.00000000	          0.00000000	          0.00000000	          0.00000000	          3.88492015	          0.00000000	          0.00000000	          0.00000000	          0.00000000	
